<?xml version="1.0" encoding="utf-8"?>
<!-- Generator: Adobe Illustrator 26.0.3, SVG Export Plug-In . SVG Version: 6.00 Build 0)  -->
<svg version="1.1" id="Layer_1" xmlns="http://www.w3.org/2000/svg" xmlns:xlink="http://www.w3.org/1999/xlink" x="0px" y="0px"
	 viewBox="0 0 235.8 269.9" style="enable-background:new 0 0 235.8 269.9;" xml:space="preserve">
<style type="text/css">
	.st0{fill:#DF2B26;}
</style>
<path class="st0" d="M60.9,4.5L0,34.5l12.1,14.4v137.2l48.9-48.9L60.9,4.5z"/>
<path d="M117.5,215.8c0,7.5-5.1,10.8-10.8,10.8c-7.5,0-9.3-4.6-9.3-9.5v-43.1h-0.3L73,198v24.6c0,13.6,7.3,25.5,24.1,25.5
	c7.4,0,14.9-3.1,20.4-8.2v6.6H142v-72.7h-24.5V215.8z M201.8,172.4c-8.3,0-15.2,2.9-20.7,8.3v-6.9h-24.6v96.1h24.6v-30
	c5.5,5.1,12.4,8.2,20.7,8.2c20.3,0,32.9-16.3,32.9-37.9C234.7,188.9,222,172.4,201.8,172.4L201.8,172.4z M195.2,227.2
	c-9.4,0-14.1-7.8-14.1-17.1c0-9.3,4.6-16.9,14.1-16.9c9.3,0,13.6,7.8,13.6,16.9C208.7,219.2,204.4,227.2,195.2,227.2z"/>
<path class="st0" d="M157.1,0c-43.5,0-78.7,35.3-78.7,78.7c0,12,2.8,23.4,7.6,33.5l0.8,0.9l48.6-48.6l-15.3-15.3h66.6v66.6
	l-15.3-15.3l-48.9,48.9c10.5,5.1,22.2,8.1,34.7,8.1c43.5,0,78.7-35.2,78.7-78.7C235.8,35.3,200.6,0,157.1,0z"/>
</svg>
