<svg width="63" height="69" viewBox="0 0 63 69" fill="none" xmlns="http://www.w3.org/2000/svg">
<path d="M61.6968 23.149C60.4177 22.2792 58.6782 22.6374 57.8085 23.9164C52.7434 31.5396 41.9992 31.9489 41.4364 31.9489C41.3341 31.9489 41.2829 31.9489 41.1806 31.9489C27.9295 31.9489 22.8644 43.2559 22.6598 43.7163C22.0458 45.1489 22.7109 46.7861 24.0923 47.4C24.4505 47.5535 24.8598 47.6559 25.2179 47.6559C26.2923 47.6559 27.3156 47.0419 27.776 45.9675C27.8272 45.8652 31.3062 38.0884 40.2597 37.5768V52.0558C39.9016 55.1768 38.4178 57.6326 35.8085 59.4744C33.0969 61.3674 29.4644 62.3395 25.0132 62.3395C19.6923 62.3395 15.3435 60.4977 12.1203 56.8651C8.84587 53.2326 7.20866 48.0651 7.20866 41.414L7.25983 25.4513C7.51564 19.5676 9.10168 14.9118 12.1203 11.5862C15.3947 7.95369 19.6923 6.11183 25.0132 6.11183C29.4644 6.11183 33.0969 7.08392 35.8085 8.97694C38.5202 10.87 40.055 13.4792 40.3109 16.856C40.3109 16.9583 40.3109 17.1118 40.3109 17.2141C40.3109 19.1583 41.8969 20.7443 43.8411 20.7443C45.7853 20.7443 47.3713 19.1583 47.3713 17.2141C47.3713 17.1118 47.3713 16.9583 47.3713 16.856C46.8597 11.7909 44.5573 7.80021 40.4132 4.78161C36.269 1.76302 31.1016 0.279297 24.8598 0.279297C17.4412 0.279297 11.4552 2.73511 6.90168 7.59556C2.60402 12.149 0.352877 18.135 0.0970641 25.5025C0.0970641 26.0141 0.0458984 26.5257 0.0458984 27.0373L0.0970641 41.414H0.0458984C0.0458984 49.5489 2.34821 56.0465 6.90168 60.907C11.4552 65.7674 17.4412 68.2232 24.8598 68.2232C31.1016 68.2232 36.269 66.7395 40.4132 63.7209C44.1992 60.9581 46.4504 57.3256 47.2178 52.8233L47.3713 36.7582C52.0271 35.6327 58.3713 33.0745 62.3619 27.0373C63.3852 25.7583 63.027 24.0187 61.6968 23.149Z" fill="white"/>
</svg>
