<svg version="1.1" xmlns="http://www.w3.org/2000/svg" viewBox="0 0 513.9423478624144 378.2452152149611" width="1541.8270435872432" height="1134.7356456448833">
  <!-- svg-source:excalidraw -->
  
  <defs>
    <style>
      @font-face {
        font-family: "Virgil";
        src: url("https://plus.excalidraw.com/Virgil.woff2");
      }
      @font-face {
        font-family: "Cascadia";
        src: url("https://plus.excalidraw.com/Cascadia.woff2");
      }
    </style>
  </defs>
  <rect x="0" y="0" width="513.9423478624144" height="378.2452152149611" fill="#ffffff"></rect><g stroke-linecap="round" transform="translate(10.529174209719713 11.332790065260497) rotate(0 246.70658682634735 178.14371257485035)"><path d="M-0.81 0.7 C133.64 0.87, 266.04 1.4, 494.1 0.23 M-0.11 -0.1 C148.82 0.67, 297.16 0.65, 493.69 -0.19 M492.21 -0.69 C491.04 74.15, 492.13 148.23, 493.09 357.15 M493.6 0.24 C493.06 131.99, 493.52 264.09, 493.47 355.68 M493.94 356.1 C333.01 355.52, 173.48 355.52, -0.27 356.98 M493.41 356.01 C388.1 355.26, 282.45 354.99, 0.17 355.89 M0.12 357.46 C-1.3 264.72, -0.72 172.22, -0.4 0 M-0.37 356.24 C-1.89 231.31, -1.97 107.52, 0.16 0.27" stroke="#000000" stroke-width="1" fill="none"></path></g><g stroke-linecap="round" transform="translate(11.127976604929245 11.332790065260497) rotate(0 246.40718562874258 20.059880239520965)"><path d="M0.7 0.43 C177.58 1.61, 355.93 2.69, 493.04 0.01 M-0.1 0.11 C186.04 0.27, 372.07 0.81, 492.63 -0.38 M491.74 -1.69 C492.4 9.77, 492.09 19.02, 494.16 41.55 M493.19 0.18 C492.12 12.11, 491.71 22.51, 491.86 40.36 M492.63 39.73 C370.78 41.51, 248.27 41.16, 0.69 39.41 M492.54 40.39 C374.45 40.32, 255.5 40.28, -0.4 39.94 M1.83 40.63 C-0.39 26.63, -2.1 9.7, 0 0.99 M-0.08 40.72 C-0.7 24.55, 0.38 8.3, 0.42 -0.86" stroke="#000000" stroke-width="1" fill="none"></path></g><g stroke-linecap="round" transform="translate(369.94159935942116 82.70255054430243) rotate(0 65.12537425149708 142.77133233532933)"><path d="M0 0 C0 0, 0 0, 0 0 M0 0 C0 0, 0 0, 0 0 M0.13 5.66 C1.8 4.65, 3.23 2.39, 4.67 -0.21 M0.08 6.69 C0.79 4.49, 2.68 3.39, 4.7 0.42 M-0.37 10.84 C4.79 7.17, 5.42 2.83, 10.43 0.15 M-0.53 12.07 C2.74 8.78, 6.2 4.36, 10.27 0.18 M-1.1 17.78 C4 15.01, 9 6.96, 17.59 0.89 M-0.09 18.18 C6.48 10.45, 11.32 3.43, 16.28 1 M-0.42 23.82 C8.97 16.1, 17.87 6.01, 23.01 -0.25 M0.21 23.58 C7.24 16.31, 14.02 8.16, 20.88 0.05 M-1.37 32.39 C4.77 23.53, 11.99 17.25, 28.12 -0.22 M-0.61 30.79 C6.55 21.7, 13.79 13.78, 26.76 1 M-0.96 37.18 C7.49 27.16, 16.96 19.94, 32.81 -0.64 M-0.84 35.94 C9.47 25.23, 17.88 15.66, 30.94 0.21 M0.58 41.32 C10.24 30.06, 18.77 19.51, 35.04 -0.56 M0.4 43.39 C12.63 26.95, 25.86 10.98, 36.03 1.25 M-1.27 48.7 C14.02 33.5, 26.98 17.16, 40.9 -1.45 M-0.3 48.5 C14.64 31.22, 30.68 15.76, 42.02 -0.65 M2.12 55.84 C17.29 35.79, 35.76 13.9, 48.3 0.04 M0.52 54.75 C15.18 36.82, 30.69 20.14, 47.59 -0.18 M0.19 59.04 C12.24 46.8, 26.3 32.99, 53.06 -0.88 M0.53 60.22 C14 45.8, 25.89 31.19, 53.95 0.48 M0.63 66.25 C19.93 42.66, 40.35 20.69, 56.54 2.05 M-1.23 66.75 C13.98 49.77, 27.3 33.84, 58.11 0.12 M0.31 72.43 C19.61 54.54, 33.18 32.73, 63.78 1.2 M0.2 72.63 C14.9 58.03, 27.95 42.07, 64.72 -1.08 M0.16 78.93 C23.79 50.82, 49.31 24.58, 67.1 -1.76 M0.34 79.33 C19.58 57.99, 40.94 34.02, 69.39 0.9 M-1.34 85.39 C22.34 56.81, 47.28 32.32, 76.24 -0.78 M0.39 84.62 C20.01 63.38, 38.47 42.46, 74.48 0.35 M-0.53 92.82 C17.78 69.98, 37.07 47.74, 77.98 1.71 M0.58 91.06 C17.57 70.66, 34.49 50.39, 78.41 0.28 M0.87 99.52 C19.83 72.61, 43.81 48.72, 86.29 -2.06 M-0.7 97.16 C23.79 70.65, 47.84 43.65, 85.51 -1.19 M-1.32 104.42 C33.37 66.21, 66.96 24.31, 89.9 1.88 M-0.33 104.08 C25.19 74.12, 50.94 44.93, 89.29 -0.32 M1.18 110.47 C38.28 68.15, 73.61 24.1, 94.47 0.42 M0.22 110.32 C33.28 71.23, 66.94 34.29, 96.27 0.64 M-1.43 116.53 C27.42 86.85, 52.81 55.58, 102.22 0.45 M-0.06 114.88 C27.16 80.97, 55.95 48.84, 101.31 -0.09 M-1.42 120.47 C28.19 90.98, 56.08 56.16, 106.03 0.03 M-0.34 121.76 C23.93 94.01, 48.62 64.82, 105.38 0.58 M-0.03 127.05 C36.49 88.4, 74.63 45.4, 113.05 -0.53 M-0.79 129.06 C35.16 88.47, 70.88 46.3, 110.91 -0.91 M-0.59 135.3 C25.14 105.02, 48.81 78.61, 118.22 1.23 M-0.06 133.75 C31.96 96.17, 64.64 59.78, 116.94 0.41 M-1.62 141.91 C33.24 103.36, 67.96 64.17, 123.13 1.27 M-0.57 140.29 C36.84 94.81, 74.68 51.41, 121.68 0.7 M0.67 145.05 C52.4 91.07, 102.19 30.17, 126.96 0.49 M0.53 145.87 C43.52 96.89, 84.51 48.73, 127.18 0.04 M-0.02 151.68 C46.8 99.21, 95.49 42.25, 130.67 1.97 M0.68 152.79 C50.78 92, 103.69 31.45, 131.09 1.11 M1.24 157.08 C50.41 103.02, 101.82 44.12, 132.86 5.84 M-0.57 157.94 C49.21 100.81, 97.4 44.06, 132.52 6.78 M0.31 164.21 C44.31 113.94, 87.11 64.01, 129.92 13.74 M0.13 164.56 C48.12 109.8, 97.52 54.06, 131.13 13.43 M1.19 171.9 C49.29 115.93, 100.37 58.13, 133.43 18.06 M-0.35 170.47 C45.01 115.95, 92.52 63.34, 131.82 19.12 M-0.28 177.9 C34.43 135.41, 68.44 98.98, 130.68 25.23 M0.63 175.79 C32.64 139.28, 63.34 104.08, 131.98 24.78 M0.78 182.3 C48.11 128.04, 94.46 73.32, 129.62 33.47 M-0.45 182.12 C42.5 136.94, 83.29 90.62, 132.01 31.13 M-1.61 190.5 C45.78 138.98, 88.87 87.62, 132.51 36.08 M-0.95 189.52 C34.98 150.15, 69.54 110.03, 132.03 37.72 M-0.2 194.88 C48.6 137, 96.63 83.68, 131.14 42.69 M1.03 195.55 C34.31 157.42, 66.11 119.18, 132.22 43.8 M-0.93 199.63 C35.33 159.77, 67.35 120.28, 130.2 49.81 M-0.2 201.48 C42.42 150.9, 84.63 103.06, 132.52 48.83 M0.46 205.74 C30.35 170.96, 63.41 136.97, 131.99 55.08 M-0.2 207.45 C39.01 163.21, 77.55 119.49, 131.51 55.3 M-0.43 214.41 C32.46 174.64, 65.26 137.91, 131.08 63.77 M0.03 213.51 C46.24 160.16, 90.28 109.15, 131.47 62.05 M-0.48 219.2 C29.2 188.02, 57.07 153.15, 131.04 66.92 M-0.83 220.08 C39.1 174.55, 81.01 126.17, 131.56 68.74 M-1.02 223.7 C31.44 187.07, 66.36 152.62, 132.5 73.33 M-0.49 225.26 C37.53 182.47, 75.79 140.59, 131.72 74.87 M-1.84 230.41 C47.81 178.81, 94.78 121.85, 131.35 80.18 M0.07 231.04 C37.83 187.28, 76.74 143.29, 132.39 80.34 M0.61 236.45 C36.53 192.02, 77.27 145.69, 132.23 87.21 M-0.06 236.65 C42.33 186.68, 85.56 138.55, 131.57 86.44 M1.56 244.25 C49.99 185.62, 98.92 129.95, 132.37 92.48 M0.69 243.18 C48.12 188.16, 99.05 129.83, 131.69 92.78 M0.51 250.04 C47.56 195.11, 98.55 141.1, 131.14 99.24 M-1.09 250.49 C39.79 205.11, 79.47 159.64, 131.01 98.17 M0.02 254.35 C44.01 204.74, 89.93 152.79, 132.52 104.82 M0.91 256.25 C29.09 221.05, 59.6 187.02, 131.08 105.01 M0.95 261.67 C42.48 212.34, 88.04 159.83, 132.48 110.75 M-0.3 262.22 C32.44 222.61, 68.21 182.84, 131.1 110.89 M0.67 269.12 C50.4 211.63, 99.94 152.25, 132.6 115.22 M-0.19 267.53 C31.78 229.67, 65.94 192.3, 132.2 116.71 M-0.87 272.73 C54.56 214.86, 106.24 152.89, 130.44 124.18 M0.21 273.38 C37.88 229.11, 78.05 183.8, 131.46 123.83 M1.46 279.54 C30.04 247.43, 60.48 216.05, 130.64 127.28 M0.65 280.04 C47.41 224.58, 98.45 167.58, 131.81 129.01 M1.11 286.55 C34.31 245.79, 69.68 204.2, 131.06 136.06 M0.85 287.2 C45.81 231.97, 92.03 179.26, 131.09 134.98 M7.43 286.58 C31.01 258.38, 56.54 228.7, 133.27 142.16 M6.38 285.03 C41.35 247.75, 75.96 208.61, 132.76 141.44 M8.93 284.56 C59.42 231.26, 105.65 178.66, 133.38 145.79 M11 285.55 C54.82 232.7, 99.72 181.17, 131.77 147.94 M15.99 287.07 C54.23 247.82, 88.74 206.12, 131.73 153.27 M17.22 286.04 C56.08 241.06, 96.31 195.25, 131.26 154.62 M19.56 286.59 C51.22 251.9, 81.47 215.74, 131.88 159.87 M20.75 286.21 C61.3 240.65, 100.21 195.22, 131.38 159.13 M25.38 284.61 C53.7 253.86, 86.36 219.86, 131.46 165.28 M26.34 286.7 C62.47 245.53, 96.15 205.3, 131.78 165.27 M33.6 286.78 C54.26 259.43, 75.94 236.37, 131.62 173.41 M31.17 285.6 C67.61 245.4, 101.93 206.09, 130.83 172.15 M36.92 286 C71.01 249.88, 103.06 212.46, 132.7 179.62 M38.56 286.78 C65.33 252.55, 95.12 219.67, 130.9 178.68 M44.21 285.58 C74.07 249.62, 104.25 213.08, 131.69 182.51 M43.39 286.41 C77.69 247.88, 111.45 207, 131.55 184.71 M46.63 286.33 C73.78 258.81, 96.58 232.05, 133.08 191.31 M47.84 285.36 C71.2 258.83, 95.23 233.21, 132.07 189.75 M53.25 285.73 C71.56 267.39, 86.48 247.04, 131.86 197.31 M52.73 285.66 C84.78 250.13, 114.61 214.52, 132.11 195.64 M57.21 285 C83.38 257.58, 106.74 230.58, 130.9 201.66 M59.31 284.9 C86.09 254.08, 112.45 223.84, 130.85 201.73 M63.28 284.29 C91.61 256.72, 117.13 225.63, 132.62 206.54 M64.62 286.71 C83.88 262.63, 103.95 239.89, 132.27 209.35 M70.05 285.74 C91.43 264.53, 108.05 242.05, 132.46 215.04 M69.25 285.18 C86.46 263.73, 105.06 244.63, 130.33 214.96 M73.52 284.65 C98.46 259.46, 120.82 236.36, 129.79 218.48 M74.68 285.29 C88.81 268.28, 104.17 252.93, 131.57 220.85 M81.24 284.58 C97 267.52, 111.05 250.61, 130.77 227.88 M81.1 285.34 C92.82 272.75, 104.32 258.96, 131.7 227.85 M83.9 284.49 C97.17 271.12, 109.11 259.73, 129.89 233.73 M84.68 285.43 C97.59 270.68, 110.45 256.1, 132.75 232.49 M89.52 285.86 C107.13 269.37, 121.92 252.07, 133.52 237.19 M91.44 285.85 C103.03 270.28, 117.52 253.53, 132.37 239.44 M95.02 287.81 C109.38 269.88, 121.68 257.88, 129.46 245.94 M96.54 285.54 C102.84 277.67, 109.34 270.29, 131.01 244.71 M100.36 286.24 C107.87 278.33, 113.48 270.16, 129.76 249.54 M102.05 286.53 C109.44 276.68, 117.57 266.13, 132.52 250.33 M108.18 284.93 C115.97 276.25, 123.86 265.65, 129.71 258.84 M106.33 286.37 C113.32 277.62, 120.82 268.82, 130.71 257.05 M113.9 286.69 C117.88 280.53, 122.43 270.84, 133.22 261.8 M111.81 286.55 C118.41 280, 122.43 273.6, 132.53 263.5 M117.36 284.47 C121.56 280.41, 124.72 276.81, 132.55 270.7 M116.29 284.98 C121.02 280.72, 125.06 276.99, 131.38 268.65 M120.84 285.57 C124.54 282.14, 127.86 278.58, 130.15 274.47 M122.12 286.91 C124.75 282.92, 127.89 279.65, 131.96 275.23 M128.19 285.77 C129.23 284.54, 129.64 283.68, 131.55 282 M127.46 286.21 C128.88 284.87, 130.08 283.26, 131.88 281.36" stroke="#228be6" stroke-width="0.5" fill="none"></path><path d="M1.05 -0.57 C31.04 -0.38, 65.65 -0.56, 130.28 1.55 M0.26 -0.04 C34.06 0.22, 70.05 -0.14, 129.34 -0.57 M128.97 -0.16 C128.23 70.91, 127.84 143.64, 131.33 285.23 M130.39 -0.44 C131.58 76.85, 130.97 154.48, 130.43 285.15 M129.29 286.7 C99.38 286.41, 67.46 286.93, -1.72 284.36 M130.91 286.31 C100.33 284.79, 69.76 283.72, -0.43 286.26 M0.39 285.35 C0.87 188.31, -0.68 94.05, 0.75 1.51 M0.45 284.95 C1.61 206.03, 1.44 126.4, -0.65 -0.18" stroke="#000000" stroke-width="1" fill="none"></path></g><g stroke-linecap="round" transform="translate(81.18785684445083 69.41662240058986) rotate(0 116.46706586826349 13.473053892215574)"><path d="M0 0 C0 0, 0 0, 0 0 M0 0 C0 0, 0 0, 0 0 M-1 6.93 C1.56 4.74, 2.87 1.93, 4.42 0.07 M0.03 6.06 C0.96 4.73, 3.01 2.5, 5.05 0.45 M-1.07 13.3 C2.07 7.21, 4.53 5.15, 10.81 0.36 M0.16 11.25 C4.01 7.7, 6.72 4.39, 10.84 -0.06 M-0.79 18.05 C7.97 11.38, 11.45 6.36, 16.18 2.28 M-0.38 18.97 C5.39 10.3, 11.87 4.62, 16.29 1.32 M0.01 24.53 C9.42 16.52, 16.47 8.7, 21.08 0.73 M-0.24 24.05 C8.13 15.13, 15.64 6.58, 21.38 -0.8 M3.88 26.97 C8.61 20.63, 15.92 14.7, 25.73 -0.01 M2.28 27.52 C11.02 16.81, 20.93 7.64, 26.96 -0.18 M7.27 28.29 C14.65 20.47, 24.81 11.08, 31.36 -0.35 M6.02 29.33 C15.29 17.93, 25.67 6.34, 32.2 -0.27 M11.41 28.14 C20.96 16.06, 31.21 6, 36.06 1.58 M13.47 27.54 C21.63 16.71, 30.32 6.18, 37.87 0.39 M17.37 28.94 C23.31 22.16, 28.01 14.06, 41.21 0.84 M17.17 28.1 C22.77 22.55, 30.31 14.58, 42.01 0.69 M24.51 27.27 C33.24 18.04, 40.32 9.96, 47.33 0.53 M23.42 27.87 C28.6 21.49, 35.07 14.33, 47.11 -0.46 M26.31 28.75 C36.83 20.38, 45.96 8.19, 52.44 -1.35 M27.48 29.25 C33.33 21.63, 39.17 16.04, 53.8 0.4 M32.76 26.93 C38.69 20.21, 46.08 14.02, 60 -0.99 M33.25 28.69 C41.51 18.03, 50.58 8.05, 58.07 -0.11 M38.28 30.15 C45.49 20.29, 48.86 16, 65.18 -1.92 M38.48 29.31 C46.1 21.26, 52.29 14.51, 62.91 0.31 M43.37 29.15 C52.75 19.45, 63.91 5.24, 66.85 -0.13 M43.77 28.12 C50.06 23.61, 54.01 17.25, 69.52 0.24 M49.83 28.23 C57.06 19.74, 68.23 9.04, 73.87 -1.17 M49.06 28.93 C55.43 21.47, 62.28 14.3, 75.01 -0.94 M55.85 28.36 C61.64 20.54, 68.16 9.7, 80.99 -1.33 M54.09 29.13 C63.98 16.53, 74.34 5.06, 79.56 -0.44 M61.79 26.79 C64.22 23.87, 69.43 17.56, 83.25 -0.71 M59.43 28.96 C68.13 19.96, 76.63 10.18, 84.12 0.43 M66.03 27.96 C72.5 21.67, 74.81 15.37, 91.82 -0.36 M65.7 28.14 C70.46 22.39, 75.77 14.83, 89.63 0.94 M71.34 30.32 C80.4 18.76, 87.35 7.37, 96.4 0.55 M71.18 28.38 C76.28 21.82, 83.47 14.35, 96.62 -0.64 M76.74 29.28 C85.36 18.9, 92.91 12.18, 101.06 -0.31 M75.09 27.97 C83.42 18.22, 92.82 8.88, 100.52 -0.35 M79.93 28 C88.54 21.78, 91.31 14.98, 106.68 -1.63 M81.21 28.32 C92.07 16.85, 101.43 5.08, 107.22 -0.06 M85.1 28.33 C94.61 22.29, 100.28 15.36, 110.74 0.44 M87.11 28.57 C95.32 19.27, 102.48 9.84, 110.36 -0.88 M93.34 29.66 C99.68 18.76, 110.28 9.98, 117.13 -0.06 M91.79 28.09 C99.65 19.46, 108.31 10.96, 116.31 0.17 M98.54 27.81 C105.93 20.13, 113.37 13.12, 123.21 0.19 M96.92 29.08 C105.66 17.85, 115.65 5.89, 122.64 0.93 M101.68 29.88 C110.97 22.16, 114.07 13.39, 127.06 0.91 M102.5 29.13 C108 21.49, 113.75 14.58, 126.6 0.96 M106.82 29.12 C118.11 19.45, 125.08 5.96, 133.12 1.9 M108.06 27.78 C116.28 18.32, 124.49 8.13, 132.17 0.81 M111.36 27.86 C122.55 19.97, 129.36 12.88, 136.13 1.86 M112.31 29.07 C121.84 16.7, 131.72 7.98, 137.18 0.62 M118 28.33 C123.55 21, 129.34 13.75, 143.45 1.27 M118.38 28.11 C126.14 21.06, 133.13 11.68, 143.1 0.64 M125.08 27.55 C131 22.59, 135.64 16.18, 146.96 1.3 M123.49 27.66 C131.68 19.22, 140.98 8.65, 148.14 -0.14 M130.45 28.21 C133.82 20.58, 143.51 12.33, 153.47 -1.36 M128.11 28.66 C133.6 21.53, 140.01 16.09, 152.96 0.49 M133.88 29.54 C141.95 18.7, 150.04 7.15, 160.5 0.42 M133.68 28.82 C140.04 23.46, 145.42 17.7, 157.9 0.58 M140.88 30.2 C147.58 21.65, 153.49 14.33, 162.78 -0.94 M139.79 29.18 C146.6 21.46, 153.04 12.92, 164.6 0.55 M145.11 27.13 C149.31 19.59, 158.24 14.06, 168 -0.87 M145.85 28.64 C150.68 22.19, 154.41 17.59, 169.23 -0.21 M148.27 30.45 C156.67 18.71, 164.68 7.79, 175.28 0.26 M150.32 28.58 C157.23 19.38, 166.17 11.65, 174.19 -0.82 M154.42 26.31 C161.51 21.23, 169.8 14.13, 179.01 0 M156.33 27.35 C161.06 21.73, 166.67 16.08, 179.26 -0.31 M161.94 27.79 C166.58 18.97, 175.5 11.08, 187.21 0.67 M160.94 28.92 C166.28 20.09, 173.95 13.75, 185.3 -1.1 M165.14 30.5 C174.48 21.62, 179.15 10.62, 189.42 0.29 M166.12 28.1 C175.49 19.79, 182.25 9.02, 191.44 -0.39 M169.51 27.72 C178.26 20.65, 190.16 10.02, 195.08 -0.6 M171.24 27.42 C176.66 22.72, 182.92 16.65, 196.79 0.37 M174.84 29.55 C186.67 18.57, 193.46 8.28, 201.41 -0.04 M175.54 27.92 C183.53 19.72, 191.39 12.48, 201.58 0.07 M180.93 26.46 C191.43 17.7, 199.05 7.74, 207.75 0.23 M181.15 28.46 C190.28 18.68, 200.52 7.81, 206.89 0.44 M187.48 28.25 C190.62 22.18, 196.43 18.29, 211.48 1.64 M186.29 28.28 C197.39 18.35, 205.78 6.8, 211.82 0.71 M192.45 26.88 C197.62 23.54, 204.69 14.75, 218.37 -0.35 M192.94 27.56 C198.07 22.14, 203.13 16.01, 217.18 0.08 M195.95 27.36 C204.6 20.62, 211.09 13.94, 222.45 -1.34 M198.06 28.02 C206.35 17.51, 216.45 7.31, 222.66 0.35 M202.62 26.58 C211.06 20.38, 215.67 13.01, 228.41 -1.16 M203.23 27.42 C212.61 18.38, 221.61 6.21, 228.56 0.44 M209.48 28.27 C215.49 20.39, 220.01 14.75, 231.45 -0.95 M207.89 28.18 C217.4 18.53, 227.53 7.87, 232.94 0.97 M212.33 29.81 C219.11 24.2, 221.66 17, 233.75 6.45 M212.98 27.88 C221.76 19.61, 229.69 11.05, 233.4 5.6 M217.6 29.11 C222.04 26.41, 227.9 19.24, 231.4 13.56 M218.16 27.91 C224.97 22.77, 230.79 15.48, 233.33 11.75 M224.69 27.77 C228.44 24.06, 231.03 20.93, 233.54 19.13 M225.16 28.05 C226.89 24.62, 230.18 21.42, 232.76 17.83 M229.69 28.62 C231.13 27.05, 232.44 26.16, 233.09 24.69 M229.3 28.59 C230.39 27.85, 231.17 27.23, 232.91 25.04" stroke="#fab005" stroke-width="0.5" fill="none"></path><path d="M-0.48 -0.8 C47.59 0.38, 94.42 -1.01, 234.24 -0.57 M-0.03 -0.53 C63.7 0.05, 127.17 -1.29, 232.45 -0.42 M232.72 0.01 C232.27 5.05, 234.14 12.54, 232.52 26.38 M232.35 0.9 C232.04 8.98, 232.08 18.03, 232.42 26.33 M233.91 27.12 C149 25.45, 64.52 24.55, -1 25.83 M233.58 27.39 C163.27 28.6, 92.62 27.89, 0.6 27.24 M-0.25 28.36 C-2.2 17.98, -0.24 11.26, 1.99 -0.42 M-0.79 27.41 C0.32 20.68, 0.44 13.05, -0.23 -0.98" stroke="#000000" stroke-width="1" fill="none"></path></g><g stroke-linecap="round" transform="translate(82.25902421000956 126.12351512854389) rotate(0 117.36526946107779 40.72975544238622)"><path d="M0 0 C0 0, 0 0, 0 0 M0 0 C0 0, 0 0, 0 0 M0.27 6.44 C1.8 4.09, 2.72 2.05, 4.7 0.32 M-0.6 6.13 C1.93 4.2, 3.55 1.63, 5.07 0.27 M1.39 11.07 C2.01 6.86, 6.64 4.63, 11.02 0.05 M-0.66 12.61 C1.8 9.46, 4.48 6.96, 10.61 0.69 M-0.52 20.38 C4.47 12.5, 11.1 8.51, 17.57 2.32 M0.4 17.57 C2.86 13.31, 8.31 10.2, 16.61 0.89 M0.72 25.64 C6.56 19.19, 12.6 11.85, 22.06 1.03 M0.24 24.72 C8.13 15.4, 16.39 5.35, 20.53 -0.29 M-1.24 30.63 C10.61 18.99, 22.84 5.84, 25.95 1.9 M-0.69 30.51 C9.15 19.73, 20.48 8.35, 25.77 0.52 M-0.54 36.74 C12.92 25.01, 24.77 8.71, 31.64 1.37 M0.49 36.1 C11.89 23.65, 23.02 9.86, 31.72 0.53 M0.1 42.15 C10.21 29.89, 22.39 14.1, 38.2 1.81 M-0.5 42.25 C8.41 30.81, 17.69 21.9, 37.02 -0.48 M0.28 49.18 C15.82 30.24, 29.9 11.57, 43.5 -1.43 M-0.57 48.01 C10.1 39.01, 18.31 26.91, 43.35 0.22 M-0.61 56.16 C9 43.58, 20.04 31.66, 47.82 -0.82 M-0.01 53.84 C13.36 39.37, 26.01 24.4, 46.82 0.74 M0.26 60.59 C14.25 47.3, 24.46 32.46, 51.97 -1.59 M0.75 60.15 C11.6 46.76, 24.67 34.18, 53.72 -0.95 M-1.43 66.96 C18.67 45.34, 39.48 21.66, 56.96 1.45 M0.33 66.4 C22.12 41.82, 44.18 17.25, 57.84 -0.64 M1.82 74.16 C15.73 52.07, 35.26 34.12, 62.06 -1.02 M0.98 73.84 C20.76 50.31, 41.86 25.41, 64.3 0.61 M0.2 78.87 C23.76 54.91, 42.89 26.12, 68.49 -1.63 M-0.83 80.16 C16.15 60.85, 31.52 44.09, 68.86 0.89 M2.03 81.13 C28.6 55.4, 52.5 27.17, 73.48 -1.3 M2.74 82.45 C21.21 61.7, 40.03 40.18, 73.72 -0.15 M6.79 82.52 C27.72 58.14, 45.47 38.88, 77.95 2 M7.56 82.64 C22.88 63.94, 39.67 44.57, 78.84 -0.8 M10.61 82.52 C37.99 53.56, 62.32 24.36, 84.61 0.28 M12.78 83.19 C31.48 63.27, 49.13 41.59, 85.75 -0.93 M17.06 84.88 C45.15 49.68, 72.81 21.9, 89.58 -1.27 M17.24 82.78 C42.57 54.09, 65.81 26.71, 90.88 0.51 M24.8 84.76 C48.83 52.87, 73.42 23.8, 96.53 -1.24 M22.86 82.7 C45.78 57.47, 68 32.53, 95.34 -0.11 M29.04 84.53 C44.92 64.66, 63.94 44.95, 100.3 1.23 M27.73 82.1 C57.32 49.83, 87.11 17.03, 100.26 -0.64 M33.14 85.03 C60.73 51.78, 87.32 22.77, 105.01 1.47 M33.46 84.4 C55.8 58.38, 77.63 32.95, 106.58 -0.72 M38.76 84.56 C57.4 64.34, 75.21 43.35, 111.72 0.51 M39 83.72 C56.42 62.58, 73.39 42.24, 110.4 0.66 M45.47 82.1 C63.3 62.27, 83.05 41.56, 115.84 0.84 M43.9 83.33 C69.37 55.59, 94.84 26.18, 116.07 0.33 M48.91 84.37 C66.5 65.06, 84.32 46.08, 122.12 1.88 M50.18 82.07 C78.52 50.08, 105.86 19.39, 122.87 -0.35 M56.35 85.02 C72.25 63.27, 87.21 46.39, 127.48 -0.68 M55.61 82.84 C80.48 53.07, 106.22 24.01, 127.52 1.18 M60.88 83.68 C79.12 61.95, 93.52 45.01, 134.51 0.97 M59.54 82.95 C83.39 54.86, 106.94 27.82, 133.41 -0.1 M65 85.17 C79.59 68.57, 95.47 48.76, 139.09 1.95 M66.21 82.65 C86.86 58.48, 110.95 32.73, 137.85 -0.39 M70.75 82.53 C92.66 56.57, 114.7 31.1, 144.53 -0.28 M70.53 83.49 C91.13 60.93, 109.39 38.34, 143.91 -0.64 M75.35 84.24 C93.14 63.72, 109.91 44.1, 149.19 1.32 M75.46 82.81 C105.86 50.67, 133.98 17.19, 147.76 -0.05 M81.29 81.26 C105.98 55.57, 129.88 25.74, 152.57 -1.62 M81.75 82.15 C106.19 54.37, 132.54 24.31, 154.42 0.3 M88.01 82.23 C104.22 61.83, 119.98 44.35, 158.98 -1.66 M87.29 83.72 C107.57 62.18, 127.14 37.85, 159.14 -0.09 M93.95 84.52 C121.88 50.65, 150.6 15.45, 163.65 -0.5 M92.93 82.78 C112.37 60.58, 130.53 40.08, 165.14 -0.68 M96.26 81.45 C119.73 56.81, 145.08 26.69, 168.35 -1.77 M97.78 84.12 C124.8 49.77, 154.24 17.14, 169.01 0.53 M104.87 81.3 C130.25 50.26, 156.2 20.84, 175.52 -0.02 M103 82.51 C131.56 50.44, 161.53 15.45, 174.44 -0.6 M106.11 82.53 C127.59 62.72, 147.12 38.04, 179.89 -1.48 M107.15 83.1 C127.51 60.51, 147.53 36.93, 179.57 0.18 M112.87 80.86 C128.2 64.16, 144.32 48.5, 186.6 -1.01 M114 81.87 C136.16 55.87, 160.8 28.18, 184.82 -0.16 M120.21 84.41 C145.86 52.12, 169.32 23.02, 190.84 1.06 M117.81 84.09 C137.45 61.67, 154.25 43.07, 190.16 0.59 M122.81 81.56 C142.71 66.35, 158.66 44.58, 195.98 -1.96 M122.51 83.47 C147.5 57.9, 170.71 30.92, 196.96 0.27 M129.92 84.33 C144.76 65.49, 159.71 48.99, 201.17 0.01 M128.29 82.86 C149.15 60.16, 171.07 36.38, 201.28 0.83 M132.21 83.79 C161.36 51.09, 189.41 21.84, 207.48 0.94 M134.21 82.97 C163.5 52.1, 191.46 18.57, 207.7 -1.29 M139.29 81.87 C164.5 52.58, 192.38 22.56, 213.52 1.83 M139.31 83.52 C155.05 65.55, 169.58 49.08, 212.59 -0.68 M143.3 82.54 C161.85 66.05, 175.19 48.26, 217.57 -2.19 M143.98 83.69 C166.69 58.5, 188.14 33.06, 218 -0.53 M149.06 82.9 C168.92 61.72, 188.77 40.94, 221.21 1.3 M149.72 82.54 C167.11 62.64, 185.28 41.56, 222.9 -0.19 M153.66 84.33 C179.06 54.68, 203.64 28.7, 227.43 1.1 M154.5 83.49 C179.68 56.33, 201.59 30, 229.02 -0.76 M160.64 83.6 C178.85 59.65, 199.42 37.74, 232.26 1.53 M160.54 82.72 C182.79 59.8, 203.73 35.17, 234.18 -0.59 M167.55 84.01 C189.65 57.08, 209.85 33.81, 236.93 3.82 M165.63 83.61 C185.96 61.63, 206.11 38.46, 236.09 1.32 M172.14 82.48 C189.03 66.72, 202.02 44.46, 238.14 10.22 M170.94 83.2 C187.26 66, 202.02 47.92, 236.33 8.85 M175.93 84.74 C198.03 57.85, 221.31 31.79, 238.08 14.58 M176.35 82.62 C195.89 59.49, 216.22 35.8, 236.09 14.6 M182.36 84.36 C192.96 71.1, 206.7 56.94, 236.2 18.56 M182.25 83.49 C195.46 69.08, 209.42 53.35, 237.58 19.41 M188.43 81.98 C206.24 63.13, 224.21 42.36, 238.63 26.94 M186.84 82.43 C204.75 62.21, 223.98 42.11, 237.17 24.99 M194.79 84.35 C206.66 68.57, 217.33 54.69, 237.78 30.81 M191.95 83.42 C204.73 68.68, 217.62 54.79, 236.65 32.43 M197.38 83.51 C207.9 70.47, 219.13 59.93, 237.84 39.35 M198.39 82.29 C205.58 73.74, 213.46 65.09, 236.43 39.31 M201.59 83.89 C213.35 74.52, 220.02 63.98, 237.66 43.31 M203.69 83.15 C215.69 67.91, 229.54 52.86, 236.12 44.4 M209.8 81.44 C221.34 69.68, 230.25 59.59, 237.64 50.31 M209.48 82.82 C220.84 70.43, 230.06 58.51, 237.11 50.43 M215.62 82.74 C222.34 74.56, 227.59 70.58, 237.27 56.73 M213.26 83.23 C222.66 73.35, 230.41 63.74, 237.75 57.14 M219.39 84.17 C224.59 76.23, 233.58 65.18, 238.67 62.87 M219.74 83.95 C223.07 77.86, 227.69 73.92, 236.64 61.85 M226.26 82.95 C230.98 77.14, 235.62 73.17, 236.17 68.82 M224.64 82.54 C229.89 78.46, 233.5 73.18, 235.88 68.63 M230.21 83.85 C231.82 80.26, 235.48 77.47, 238.06 74.2 M229.88 83.06 C231.97 80.04, 235.38 76.9, 237.15 74.76" stroke="#40c057" stroke-width="0.5" fill="none"></path><path d="M-0.79 0.62 C91.8 1.02, 180.79 1.87, 234.16 -0.44 M-0.53 -0.08 C65.4 -0.31, 128.89 -0.4, 234.31 -0.79 M234.74 -0.52 C233.54 21.42, 235.47 39.74, 234.17 82.06 M235.63 -0.99 C234.97 26.53, 235.12 54.46, 234.12 82.11 M234.9 82.43 C169.08 84.02, 103.09 81.61, -1.12 81.45 M235.17 81.55 C180.22 82.16, 124.65 83.57, 0.3 81.54 M1.41 79.51 C-0.84 49.57, 0.78 19.66, -0.42 -1.16 M0.47 81.76 C-0.24 58.08, -1.34 33.63, -0.98 -0.25" stroke="#000000" stroke-width="1" fill="none"></path></g><g stroke-linecap="round" transform="translate(10 356.82436505481627) rotate(0 179.83567748224482 5.089820359281362)"><path d="M0.46 1.06 C127.22 1.09, 254.73 0.65, 359.34 -0.3 M-0.06 0.43 C117.09 0.86, 234.39 1.12, 359.08 -0.34 M359.4 -0.26 C360.35 2.92, 359.45 4.1, 359.98 10.56 M359.17 0.05 C359.13 3.36, 359.35 6.16, 360 10.06 M360.41 9.76 C270.05 9.32, 177.54 9.57, -0.01 9.34 M359.74 10.44 C227.27 11.1, 96.55 11.6, 0.06 10.76 M-0.99 9.86 C0.01 7.37, 1.03 3.34, -0.59 -0.08 M0.15 10.31 C0.3 6.08, -0.04 2.36, -0.13 -0.46" stroke="#000000" stroke-width="1" fill="none"></path></g><g stroke-linecap="round" transform="translate(11.639617375657508 10) rotate(0 23.4375 20.625)"><path d="M1.29 -1.29 L46.18 1.66 L45.91 39.76 L-0.48 43.12" stroke="none" stroke-width="0" fill="#868e96"></path><path d="M1.68 0.55 C12.76 1.38, 24.8 -0.7, 46.4 0.53 M0.67 -0.46 C12.97 -0.52, 27.27 -0.9, 46.34 -0.84 M46.37 1.35 C48.31 11.53, 46.31 24.48, 47.62 41.61 M46.96 -0.95 C47.49 9.46, 46.63 20.59, 46.65 40.77 M46.22 42.93 C28.38 40.34, 12 41.51, -1.33 42.58 M47.28 40.29 C28.8 42.01, 11.94 41.39, 0.92 41.51 M-0.63 41.25 C0.7 31.38, -0.71 16.37, -0.16 1.2 M0.25 41.67 C-1.05 31.89, -1.17 22.75, -0.9 -0.67" stroke="#000000" stroke-width="1" fill="none"></path></g><g stroke-linecap="round" transform="translate(71.59368826531409 23.624229146031837) rotate(0 8.491435035552513 8.258322559793157)"><path d="M-1.29 -0.7 L18.64 -0.96 L15.49 16.04 L1.87 17.87" stroke="none" stroke-width="0" fill="#228be6"></path><path d="M0.47 0.02 C5.61 -0.71, 8.15 -0.55, 17.43 -0.06 M-0.39 -0.78 C3.54 -0.54, 7.25 -0.57, 16.27 -0.09 M18.09 1.18 C16.6 4.5, 17.43 10.54, 17.28 15.55 M16.2 0.2 C16.39 5.93, 17.35 12.69, 16.59 16.99 M18.41 15.06 C10.71 15.34, 6.44 15.33, 1.13 17.81 M16.17 16.15 C11.6 16.89, 5.09 17.36, 0.22 16.41 M0 17.33 C1.81 10.05, -0.8 4.15, 0.99 -1.3 M0.35 15.81 C-0.24 9.98, -0.26 4.32, -0.55 0.53" stroke="#1864ab" stroke-width="1" fill="none"></path></g><g stroke-linecap="round" transform="translate(458.82559277241853 22.338440555441423) rotate(0 9.28240740740739 8.032407407407419)"><path d="M-0.7 1.66 L17.6 -1.49 L18.09 17.94 L1.36 14.66" stroke="none" stroke-width="0" fill="#868e96"></path><path d="M0.03 1.44 C5.62 -0.54, 12.06 0.44, 18.5 -1.17 M-0.85 -0.53 C4.93 -0.79, 10.3 -0.7, 18.47 0 M19.71 -0.33 C18.07 4.88, 19.13 9.08, 17.63 17.51 M18.76 -0.41 C18.09 3.74, 18.4 6.07, 19.03 16.15 M16.97 14.97 C10.69 16.21, 4.04 17.45, 1.42 17.04 M18.16 16.73 C13.12 15.97, 7.87 16.12, -0.12 16.72 M0.79 17.67 C-0.28 11.88, -0.08 10.52, -1.27 0.75 M-0.69 15.88 C-0.83 10.57, -0.76 4.94, 0.52 -0.52" stroke="#000000" stroke-width="1" fill="none"></path></g><g stroke-linecap="round" transform="translate(410.97784043993306 21.415845583326643) rotate(0 19.93055555555543 8.958333333333314)"><path d="M1.66 -0.96 L38.37 -0.48 L41.73 19.27 L-1.41 18.02" stroke="none" stroke-width="0" fill="#228be6"></path><path d="M1.55 -0.67 C14.78 -0.48, 31.13 -0.08, 38.6 -0.18 M-0.57 -0.5 C13.7 -0.17, 28.43 0.26, 39.87 -0.26 M39.49 -0.51 C40.52 5.6, 40.3 8.81, 41.47 16.14 M39.4 -0.55 C40.27 5.33, 39.26 11.59, 39.95 18.44 M38.68 16.59 C29.2 16.25, 19.89 19.1, 1.05 18.13 M40.57 18.27 C26.37 18.66, 12.96 17.62, 0.71 16.94 M1.78 17.54 C-1.04 12.96, 1.07 6.88, 0.83 0.53 M-0.21 17.04 C-0.3 11.29, -0.67 6.86, -0.58 -0.31" stroke="#1864ab" stroke-width="1" fill="none"></path></g><g stroke-opacity="0.2" fill-opacity="0.2" stroke-linecap="round" transform="translate(360.6219685538126 22.072643395373518) rotate(0 20.625 8.958333333333343)"><path d="M-0.96 -1.49 L40.77 1.87 L42.61 16.51 L0.1 16.28" stroke="none" stroke-width="0" fill="#868e96"></path><path d="M-0.67 -0.52 C13.03 0.21, 26.95 -1.58, 41.07 1.34 M-0.5 -0.94 C9.96 -0.61, 20.89 0.24, 40.99 -0.25 M40.74 0.54 C42.05 6.9, 40.33 14.77, 39.47 18.08 M40.7 0.58 C41.09 3.24, 41.81 7.42, 41.77 17.62 M39.93 17.91 C24.08 19, 11.09 18.72, 0.22 18.73 M41.6 18.01 C33.76 18.47, 24.31 18.92, -0.98 17.6 M-0.37 16.87 C-0.23 13.61, -1.5 7.99, 0.53 0.44 M-0.88 17.69 C-0.65 11.19, 0.73 5.07, -0.31 0.74" stroke="#000000" stroke-width="1" fill="none"></path></g><g stroke-linecap="round" transform="translate(369.99821689358396 53.3312930592723) rotate(0 65.90544871794873 14.0625)"><path d="M-0.52 -0.48 C40.25 0.37, 78.19 0.26, 133.15 -0.91 M-0.94 -0.54 C26.64 0.56, 54.97 0.4, 131.56 0.67 M132.41 0.75 C132.11 9.28, 133.55 18.91, 131.99 26.22 M132.46 -0.23 C131.19 9.7, 131.77 18.82, 131.48 28.97 M131.8 26.8 C104.93 28.78, 76.44 27.47, 0.81 26.2 M131.9 29.04 C98.25 28.47, 64.88 27.61, -0.31 28.13 M-1.16 27.97 C0.91 16.72, 0.65 9.06, 0.49 0.85 M-0.25 27.23 C-0.6 22.75, -0.58 15.73, 0.83 -0.48" stroke="#000000" stroke-width="1" fill="none"></path></g><g transform="translate(404.5926146365591 104.28157518732405) rotate(0 37 11)"><text x="37" y="15" font-family="Virgil, Segoe UI Emoji" font-size="16px" fill="#000000" text-anchor="middle" style="white-space: pre;" direction="ltr">Inspector</text></g><g transform="translate(172.5392110371231 158.29013368856522) rotate(0 20.5 11)"><text x="20.5" y="15" font-family="Virgil, Segoe UI Emoji" font-size="16px" fill="#000000" text-anchor="middle" style="white-space: pre;" direction="ltr">Block</text></g><g transform="translate(90.66774322553465 71.953778856908) rotate(0 42 11)"><text x="42" y="15" font-family="Virgil, Segoe UI Emoji" font-size="16px" fill="#000000" text-anchor="middle" style="white-space: pre;" direction="ltr">Page Title</text></g><g stroke-linecap="round" transform="translate(81.84017216484608 104.72463190886151) rotate(0 42.27465214761037 8.03341244357577)"><path d="M0 0 C0 0, 0 0, 0 0 M0 0 C0 0, 0 0, 0 0 M-0.94 5.86 C2.09 4.44, 3.26 1.69, 5.16 0.19 M0.05 6.16 C1.05 4.16, 3.04 2.65, 5.09 0.38 M-1.45 13.19 C1.06 9.53, 4.12 7.17, 10.59 1.41 M-0.02 12.82 C3.22 8.27, 7.09 5.27, 11.41 0.76 M2.24 15.18 C2.96 11.49, 9.64 10.1, 17.61 1.45 M1.41 17.71 C5.33 13.36, 9.33 8.55, 16.02 0.87 M6.11 18.57 C11.32 11.94, 17.27 3.97, 19.79 -0.5 M5.55 17.36 C12.27 10.63, 19.16 3.16, 21.11 0.73 M10.42 16.95 C15.49 12.02, 23.82 5.75, 25.3 0.74 M11.67 16.83 C17.78 11.67, 23.1 4.22, 26.12 1.03 M18.3 15.7 C22.38 11.49, 26.27 5.05, 31.56 1.16 M16.78 17.07 C20.76 12.16, 25.77 5.51, 32.55 0.67 M21.16 16.33 C24.3 11.06, 27.97 10.36, 37.15 -1.21 M22.64 16.99 C27.84 10.43, 32.34 4.01, 37.37 -0.39 M26.54 15.4 C32.22 14.96, 33.12 8.59, 44.18 0.58 M26.99 18.02 C30.13 13.81, 33.89 9.87, 42.68 -0.66 M32.52 15.38 C37.62 11.74, 41.08 6.93, 46.14 1.27 M33.2 16.64 C37.4 13.11, 39.69 8.92, 46.92 -0.49 M39.55 15.57 C41.05 11.99, 46.44 10.7, 54.29 -1.74 M37.47 16.99 C42.56 11.89, 47.94 5.82, 52.56 0.46 M44.87 14.89 C48.92 9.26, 54.64 4.28, 57.54 -1.47 M44.54 17.37 C46.71 11.8, 51.67 8.36, 57.28 -0.22 M50.36 18.83 C54.02 12.75, 60.24 4.32, 64.82 1.43 M48.85 16.89 C54.37 12.1, 57.64 4.94, 63.64 -1.1 M52.91 18.29 C59.43 11.9, 62.08 10.7, 68.95 1.62 M54.23 15.93 C60.15 11.35, 64.93 5.47, 68.3 -0.37 M60.31 16.47 C63.56 13.37, 67.34 9.27, 73.02 -0.05 M59.1 16.81 C63.77 11.36, 66.91 8.33, 73.69 0.7 M65.63 15.73 C66.61 12.94, 69.68 9.29, 78.27 -1.72 M64.16 16.23 C70.55 10.5, 75.27 4.46, 79.18 0.4 M71.07 16.48 C75.3 13.11, 78.11 7.12, 85.8 -0.83 M69.55 17.97 C75.24 9.87, 80.9 5.38, 84.16 -0.2 M74.73 16.23 C78.95 11.97, 80.76 9, 85.97 6.71 M76.28 17.14 C78.95 12.76, 81.7 9.33, 85.08 5.8 M80.59 16.59 C82.26 15.71, 83.35 14.82, 84.32 12.64 M80.66 17.27 C81.39 16.14, 82.66 15.01, 84.46 12.7" stroke="#7950f2" stroke-width="0.5" fill="none"></path><path d="M-1.26 -0.18 C24.69 -0.88, 44.87 -1.1, 83.54 -1.88 M0 -0.26 C20.58 0.76, 42.39 -0.12, 84.27 0.3 M85.99 -1.59 C84.72 3.89, 84.97 10.02, 83.56 17.1 M84.63 0.47 C84.21 5.13, 83.78 8.44, 84.02 16.06 M85.6 16.28 C65.6 14.79, 44.16 18.14, 0.71 16.25 M85.25 15.09 C51.13 15.96, 18.84 16.96, -0.21 15.49 M0.75 16.54 C0.3 12.05, -1.47 6.31, -1.58 -0.4 M-0.52 15.79 C0.77 12.31, -0.49 9.13, 0.75 0.54" stroke="#000000" stroke-width="1" fill="none"></path></g><g transform="translate(90.94339457288515 103.22265730529944) rotate(0 30 11)"><text x="30" y="15" font-family="Virgil, Segoe UI Emoji" font-size="16px" fill="#000000" text-anchor="middle" style="white-space: pre;" direction="ltr">Toolbar</text></g><g transform="translate(74.37209694591093 21.218686159606534) rotate(0 5 11)"><text x="5" y="15" font-family="Virgil, Segoe UI Emoji" font-size="16px" fill="#fff" text-anchor="middle" style="white-space: pre;" direction="ltr">+</text></g><g stroke-opacity="0.4" fill-opacity="0.4" transform="translate(487.8579126243303 26.35269998224004) rotate(0 0.17361111111108585 0.17361111111111427)" stroke="none" fill="#1864ab"><path d="M 1.54,-0.48 Q 1.54,-0.48 1.56,-0.09 1.58,0.29 1.42,0.64 1.27,0.99 0.96,1.23 0.66,1.47 0.28,1.54 -0.09,1.61 -0.46,1.49 -0.83,1.38 -1.10,1.10 -1.38,0.83 -1.49,0.46 -1.61,0.09 -1.54,-0.28 -1.47,-0.66 -1.23,-0.96 -0.99,-1.27 -0.64,-1.42 -0.29,-1.58 0.09,-1.56 0.48,-1.54 0.81,-1.34 1.14,-1.14 1.34,-0.81 L 1.54,-0.48 Z"></path></g><g stroke-opacity="0.4" fill-opacity="0.4" transform="translate(488.4366163280338 27.047144426684554) rotate(0 -0.5787037037036953 0)" stroke="none" fill="#000000"><path d="M 1.30,-0.48 Q 1.30,-0.48 1.33,-0.09 1.35,0.29 1.19,0.64 1.03,0.99 0.73,1.23 0.43,1.47 0.05,1.54 -0.32,1.61 -0.69,1.49 -1.06,1.38 -1.33,1.10 -1.61,0.83 -1.72,0.46 -1.84,0.09 -1.77,-0.28 -1.70,-0.66 -1.46,-0.96 -1.22,-1.27 -0.87,-1.42 -0.52,-1.58 -0.13,-1.56 0.24,-1.54 0.57,-1.34 0.91,-1.14 1.10,-0.81 L 1.30,-0.48 Z"></path></g><g stroke-opacity="0.4" fill-opacity="0.4" transform="translate(487.9736533650703 30.51936664890661) rotate(0 -0.28935185185196133 0.17361111111111427)" stroke="none" fill="#000000"><path d="M 1.42,-0.48 Q 1.42,-0.48 1.44,-0.09 1.47,0.29 1.31,0.64 1.15,0.99 0.85,1.23 0.54,1.47 0.16,1.54 -0.21,1.61 -0.58,1.49 -0.95,1.38 -1.22,1.10 -1.49,0.83 -1.61,0.46 -1.72,0.09 -1.65,-0.28 -1.58,-0.66 -1.34,-0.96 -1.11,-1.27 -0.75,-1.42 -0.40,-1.58 -0.02,-1.56 0.36,-1.54 0.69,-1.34 1.02,-1.14 1.22,-0.81 L 1.42,-0.48 Z"></path></g><g stroke-opacity="0.4" fill-opacity="0.4" transform="translate(487.16346817988506 32.65981878935884) rotate(0 0 -0.36150192400194214)" stroke="none" fill="#000000"><path d="M 1.54,-0.74 Q 1.54,-0.74 1.56,-0.35 1.58,0.03 1.42,0.38 1.27,0.73 0.96,0.97 0.66,1.21 0.28,1.28 -0.09,1.35 -0.46,1.23 -0.83,1.12 -1.10,0.84 -1.38,0.57 -1.49,0.20 -1.61,-0.16 -1.54,-0.54 -1.47,-0.92 -1.23,-1.22 -0.99,-1.53 -0.64,-1.68 -0.29,-1.84 0.09,-1.82 0.48,-1.80 0.81,-1.60 1.14,-1.40 1.34,-1.07 L 1.54,-0.74 Z"></path></g><g stroke-opacity="0.4" fill-opacity="0.4" transform="translate(486.4690237354407 37.116588871128954) rotate(0 0.17361111111108585 0.17361111111111427)" stroke="none" fill="#000000"><path d="M 1.54,-0.48 Q 1.54,-0.48 1.56,-0.09 1.58,0.29 1.42,0.64 1.27,0.99 0.96,1.23 0.66,1.47 0.28,1.54 -0.09,1.61 -0.46,1.49 -0.83,1.38 -1.10,1.10 -1.38,0.83 -1.49,0.46 -1.61,0.09 -1.54,-0.28 -1.47,-0.66 -1.23,-0.96 -0.99,-1.27 -0.64,-1.42 -0.29,-1.58 0.09,-1.56 0.48,-1.54 0.81,-1.34 1.14,-1.14 1.34,-0.81 L 1.54,-0.48 Z"></path></g><g stroke-opacity="0.4" fill-opacity="0.4" transform="translate(379.40201812412306 63.42458632120213) rotate(0 10.85714285714289 6.285714285714278)"><text x="0" y="7.571428571428546" font-family="Virgil, Segoe UI Emoji" font-size="9.142857142857125px" fill="#000000" text-anchor="start" style="white-space: pre;" direction="ltr">Page</text></g><g stroke-opacity="0.4" fill-opacity="0.4" transform="translate(366.02173643398237 24.97388209585006) rotate(0 16 6.5)"><text x="0" y="8" font-family="Virgil, Segoe UI Emoji" font-size="9.142857142857125px" fill="#000000" text-anchor="start" style="white-space: pre;" direction="ltr">Preview</text></g><g transform="translate(417.43018713820766 24.2696567437373) rotate(0 14.5 6.5)"><text x="0" y="8" font-family="Virgil, Segoe UI Emoji" font-size="9.142857142857125px" fill="#fff" text-anchor="start" style="white-space: pre;" direction="ltr">Publish</text></g><g stroke-opacity="0.4" fill-opacity="0.4" transform="translate(411.92599981760486 64.17935503566002) rotate(0 11.5 6.5)"><text x="0" y="8" font-family="Virgil, Segoe UI Emoji" font-size="9.142857142857125px" fill="#000000" text-anchor="start" style="white-space: pre;" direction="ltr">Block</text></g><g stroke-linecap="round"><g transform="translate(409.37828954575616 79.08402571619274) rotate(0 14.029953783940073 -0.8730219666651067)"><path d="M0.01 -0.31 C5.09 -0.29, 24.4 0.16, 29.51 0.05 M-1.45 -1.52 C3.54 -1.82, 23.1 -1.93, 28.4 -1.65" stroke="#1864ab" stroke-width="1" fill="none"></path></g></g><g stroke-linecap="round"><g transform="translate(486.25487390920716 65.53539275789535) rotate(0 3.18630030225313 3.1636221609280426)"><path d="M-0.23 0.61 C2.46 1.74, 3.37 4.11, 6.6 6.76 M0.04 -0.43 C1.68 1.42, 2.81 3.55, 6.16 6.38" stroke="#999" stroke-width="1" fill="none"></path></g></g><g stroke-linecap="round"><g transform="translate(491.81100792605866 65.74132812715504) rotate(0 -2.6619792387236885 2.785941596354064)"><path d="M0.52 0.55 C-1.87 1.35, -3.18 3.43, -5.52 4.8 M-0.37 0.09 C-2.46 1.82, -4.21 4.01, -5.84 5.48" stroke="#999" stroke-width="1" fill="none"></path></g></g><g stroke-linecap="round" transform="translate(24.83730626657416 21.181585899755873) rotate(0 9.570452602338946 9.315003620316872)"><path d="M4.4 1.74 C5.99 0.84, 8.64 -0.37, 10.9 -0.15 C13.16 0.07, 16.68 1.5, 17.93 3.09 C19.18 4.68, 18.44 7.2, 18.39 9.39 C18.34 11.57, 18.99 14.68, 17.63 16.21 C16.27 17.75, 12.54 18.45, 10.21 18.59 C7.89 18.73, 5.45 17.98, 3.69 17.05 C1.93 16.12, 0.17 14.99, -0.34 13.01 C-0.86 11.03, -0.47 7.21, 0.63 5.16 C1.72 3.11, 5.16 1.44, 6.21 0.72 C7.27 0, 6.89 0.85, 6.96 0.85 M11.88 -0.08 C13.57 0.21, 15.54 1.95, 16.72 4 C17.9 6.05, 18.88 9.99, 18.95 12.24 C19.02 14.48, 18.87 16.57, 17.12 17.47 C15.37 18.37, 10.61 17.64, 8.45 17.63 C6.28 17.62, 5.7 18.48, 4.14 17.42 C2.57 16.37, -0.49 13.46, -0.92 11.3 C-1.35 9.14, 0.31 6.32, 1.54 4.46 C2.76 2.6, 4.75 0.6, 6.43 0.14 C8.1 -0.32, 10.7 1.83, 11.58 1.69 C12.47 1.55, 11.82 -0.63, 11.74 -0.71" stroke="none" stroke-width="0" fill="#ced4da"></path><path d="M8.96 0.23 C10.84 0.01, 12.89 1.4, 14.36 2.5 C15.83 3.6, 17.28 5.04, 17.78 6.85 C18.28 8.67, 18.11 11.66, 17.35 13.36 C16.59 15.07, 14.81 16.29, 13.23 17.08 C11.66 17.87, 9.86 18.41, 7.88 18.12 C5.9 17.83, 2.63 16.84, 1.34 15.35 C0.05 13.87, -0.05 11.17, 0.13 9.23 C0.3 7.28, 0.67 5.28, 2.37 3.67 C4.08 2.06, 8.59 -0.02, 10.35 -0.45 C12.12 -0.89, 12.96 0.72, 12.96 1.08 M13.75 -0.77 C15.36 -0.02, 16.41 3.97, 17.36 5.99 C18.31 8.02, 19.55 9.53, 19.47 11.37 C19.38 13.21, 18.58 15.64, 16.85 17.03 C15.12 18.41, 11.59 19.89, 9.07 19.68 C6.55 19.48, 3.21 17.16, 1.72 15.78 C0.22 14.39, -0.1 13.32, 0.1 11.37 C0.3 9.42, 2 5.92, 2.94 4.08 C3.87 2.25, 3.87 1.11, 5.72 0.34 C7.57 -0.42, 12.69 -0.67, 14.03 -0.51 C15.37 -0.35, 13.91 0.84, 13.76 1.29" stroke="#fff" stroke-width="1" fill="none"></path></g><g stroke-linecap="round" transform="translate(465.8287840019302 28.413618929887775) rotate(0 2.2000000000000455 2.4000000000000057)"><path d="M2.57 -0.63 C3.1 -0.47, 2.83 0.95, 3.04 1.21 C3.25 1.47, 3.66 0.43, 3.82 0.94 C3.98 1.45, 3.98 3.78, 3.99 4.27 C4 4.75, 4.25 3.89, 3.88 3.83 C3.51 3.77, 2.37 4.06, 1.76 3.92 C1.16 3.79, 0.43 3.32, 0.27 3.03 C0.11 2.75, 0.87 2.52, 0.81 2.22 C0.74 1.92, -0.29 1.52, -0.09 1.22 C0.1 0.92, 1.56 0.54, 1.95 0.42 C2.35 0.31, 2.4 0.46, 2.26 0.54 M1.66 -1.07 C1.89 -0.96, 2.43 -0.2, 3.12 0.53 C3.81 1.27, 5.47 3.03, 5.82 3.34 C6.16 3.65, 5.84 2.06, 5.19 2.39 C4.53 2.71, 2.38 5.09, 1.9 5.28 C1.41 5.47, 2.51 3.78, 2.27 3.54 C2.04 3.3, 0.92 4.1, 0.49 3.87 C0.07 3.64, -0.26 2.93, -0.28 2.18 C-0.3 1.44, -0.26 -0.09, 0.36 -0.61 C0.98 -1.12, 3.35 -0.79, 3.44 -0.91 C3.52 -1.02, 1.08 -1.51, 0.85 -1.29" stroke="none" stroke-width="0" fill="#ced4da"></path><path d="M2.07 -0.56 C2.61 -0.89, 3.87 -0.84, 4.26 -0.63 C4.65 -0.42, 4.34 0.13, 4.38 0.7 C4.42 1.27, 4.78 2.04, 4.48 2.78 C4.19 3.53, 3.12 4.91, 2.62 5.16 C2.13 5.41, 1.78 4.47, 1.52 4.27 C1.26 4.07, 1.2 4.36, 1.05 3.98 C0.89 3.6, 0.52 2.67, 0.58 1.99 C0.64 1.32, 1.23 0.38, 1.4 -0.06 C1.58 -0.51, 1.44 -0.58, 1.62 -0.66 C1.81 -0.75, 2.32 -0.86, 2.53 -0.59 M1.33 -0.57 C1.92 -0.49, 4.54 0.79, 5.07 1.55 C5.61 2.31, 4.69 3.59, 4.53 3.98 C4.38 4.37, 4.32 4.02, 4.14 3.91 C3.96 3.8, 4.06 3.25, 3.45 3.33 C2.84 3.4, 0.91 4.17, 0.47 4.37 C0.03 4.57, 0.91 5.16, 0.82 4.52 C0.72 3.87, -0.16 1.08, -0.11 0.51 C-0.05 -0.05, 0.87 1.08, 1.15 1.12 C1.43 1.17, 1.25 0.88, 1.59 0.78 C1.93 0.68, 2.91 0.79, 3.2 0.5" stroke="#fff" stroke-width="1" fill="none"></path></g></svg>