<svg width="51" height="54" viewBox="0 0 51 54" fill="none" xmlns="http://www.w3.org/2000/svg">
<g clip-path="url(#clip0_55_56)">
<path d="M31.025 22.464H4.25V49.68H31.025V22.464Z" fill="white"/>
<path d="M46.7501 4.31995H19.9751V31.5359H46.7501V4.31995Z" fill="white"/>
<path fill-rule="evenodd" clip-rule="evenodd" d="M46.7501 4.32H19.9751V31.536H46.7501V4.32ZM15.7251 0V35.856H51.0001V0H15.7251Z" fill="#1A334C"/>
<path fill-rule="evenodd" clip-rule="evenodd" d="M31.025 22.464H4.25V49.68H31.025V22.464ZM0 18.144V54H35.275V18.144H0Z" fill="#1A334C"/>
<path fill-rule="evenodd" clip-rule="evenodd" d="M49.3001 4.32006L4.25007 53.1361L1.15039 50.1803L46.2006 1.3645L49.3001 4.32006Z" fill="#1A334C"/>
<path d="M31.0251 11.2321H19.9751V35.8561H31.0251V11.2321Z" fill="white"/>
<path d="M39.5249 11.2321H26.7749V24.1921H39.5249V11.2321Z" fill="#1A334C"/>
<path d="M23.8 29.376H11.05V42.336H23.8V29.376Z" fill="#1A334C"/>
</g>
<defs>
<clipPath id="clip0_55_56">
<rect width="51" height="54" fill="white"/>
</clipPath>
</defs>
</svg>
